<?xml version="1.0" standalone="no"?>
<!DOCTYPE svg PUBLIC "-//W3C//DTD SVG 20010904//EN"
 "http://www.w3.org/TR/2001/REC-SVG-20010904/DTD/svg10.dtd">
<svg version="1.0" xmlns="http://www.w3.org/2000/svg"
 width="512.000000pt" height="512.000000pt" viewBox="0 0 512.000000 512.000000"
 preserveAspectRatio="xMidYMid meet">
<metadata>
Created by potrace 1.14, written by Peter Selinger 2001-2017
</metadata>
<g transform="translate(0.000000,512.000000) scale(0.100000,-0.100000)"
fill="#000000" stroke="none">
<path d="M3955 4599 c-35 -17 -48 -50 -53 -131 -4 -73 -6 -77 -33 -88 -27 -12
-32 -10 -88 43 -54 50 -64 55 -100 53 -27 -2 -50 -11 -68 -27 -52 -47 -234
-232 -248 -253 -33 -47 -15 -99 63 -171 30 -29 31 -34 21 -63 -6 -18 -18 -32
-27 -33 -210 -9 -207 -6 -207 -269 0 -248 8 -262 145 -265 74 -2 75 -2 88 -35
13 -33 13 -34 -32 -77 -54 -51 -66 -72 -66 -111 0 -38 19 -61 164 -204 157
-154 176 -159 278 -60 45 43 48 44 77 32 30 -12 31 -14 31 -77 0 -78 20 -127
60 -143 38 -16 390 -16 419 0 37 19 53 56 55 127 2 78 6 88 41 97 21 5 34 -2
78 -44 56 -54 99 -70 138 -50 43 22 278 263 289 296 14 43 -1 78 -56 135 -38
39 -44 50 -38 73 9 35 16 38 94 41 76 2 115 20 130 61 6 14 10 106 10 204 0
98 -4 190 -10 204 -15 41 -54 59 -131 62 -80 3 -85 5 -93 40 -6 21 2 35 42 79
55 60 67 95 47 140 -20 47 -264 281 -301 289 -43 10 -78 -7 -126 -59 -34 -37
-46 -44 -67 -38 -39 9 -45 19 -47 76 -1 29 -3 62 -3 75 -1 13 -14 37 -30 53
l-29 29 -199 -1 c-109 0 -207 -5 -218 -10z m324 -145 c3 -3 6 -36 6 -75 1 -55
5 -73 20 -87 33 -30 201 -95 227 -87 13 4 46 29 73 56 l51 49 77 -79 c42 -43
77 -82 77 -86 0 -4 -22 -30 -50 -58 -58 -58 -61 -78 -26 -152 12 -28 28 -67
35 -86 19 -60 41 -72 126 -73 l75 -1 0 -116 0 -115 -75 0 c-85 0 -106 -13
-126 -73 -7 -20 -22 -59 -35 -88 -34 -74 -31 -91 26 -150 28 -28 50 -55 50
-59 0 -5 -35 -43 -77 -85 l-78 -77 -58 55 c-64 61 -74 63 -159 25 -24 -11 -59
-25 -79 -31 -59 -19 -74 -43 -74 -121 0 -38 -3 -71 -7 -75 -5 -5 -87 -8 -195
-6 l-33 1 0 73 c0 84 -14 107 -77 127 -21 7 -60 24 -86 37 -63 31 -95 24 -150
-33 -23 -24 -47 -44 -52 -44 -6 0 -45 35 -88 78 l-77 78 44 43 c69 68 73 86
38 168 -16 37 -35 83 -42 102 -17 43 -55 59 -131 55 -49 -2 -59 1 -60 14 -4
44 -5 198 -2 208 3 6 26 10 58 9 96 -3 113 9 152 100 63 146 62 153 -16 230
l-41 39 82 83 81 82 51 -50 c28 -27 61 -52 74 -55 15 -4 47 4 90 23 37 17 82
36 100 43 44 17 52 36 52 119 l0 70 38 3 c51 4 184 -1 191 -8z"/>
<path d="M4050 4042 c-175 -58 -283 -209 -279 -391 3 -118 41 -203 128 -284
171 -160 449 -134 587 55 191 259 23 616 -300 634 -61 3 -94 0 -136 -14z m220
-155 c88 -42 139 -118 144 -213 5 -76 -18 -135 -73 -190 -73 -74 -178 -93
-273 -50 -213 95 -192 394 32 467 38 13 131 5 170 -14z"/>
<path d="M1351 3929 c-57 -34 -64 -59 -65 -220 -1 -81 -3 -149 -6 -152 -3 -3
-41 -19 -85 -36 -43 -18 -85 -37 -92 -43 -9 -7 -37 15 -110 87 -54 54 -108
104 -120 112 -30 20 -83 23 -115 7 -36 -18 -474 -458 -494 -495 -17 -35 -16
-84 3 -114 7 -11 57 -64 110 -117 l96 -97 -17 -35 c-9 -20 -27 -64 -40 -98
l-24 -63 -153 -5 c-168 -5 -188 -11 -219 -63 -19 -30 -20 -53 -20 -365 0 -451
-8 -435 233 -438 82 -1 151 -5 154 -8 5 -5 83 -186 83 -192 0 -1 -47 -50 -105
-108 -105 -108 -122 -138 -111 -193 8 -40 23 -57 260 -293 l236 -235 60 0 60
0 107 107 108 108 85 -36 c47 -19 92 -39 100 -43 12 -6 15 -36 15 -154 1 -163
7 -184 63 -219 33 -20 44 -21 374 -19 373 1 376 2 412 62 13 23 17 57 18 178
l1 150 36 12 c20 7 65 25 100 41 l65 29 102 -103 c117 -117 154 -136 214 -111
45 18 486 455 507 502 28 66 13 97 -104 215 l-106 107 39 97 c21 53 39 99 40
101 2 2 69 4 151 5 167 2 199 12 226 68 24 51 21 200 -5 233 -26 33 -51 39
-87 20 -34 -17 -40 -33 -43 -115 l-3 -55 -155 -1 c-94 -1 -164 -5 -177 -12
-13 -7 -31 -39 -48 -89 -15 -43 -45 -116 -66 -161 -22 -46 -39 -95 -39 -110 0
-19 29 -54 114 -141 l114 -116 -199 -199 -200 -200 -112 112 c-62 61 -123 114
-137 117 -18 4 -49 -5 -105 -33 -44 -22 -105 -47 -135 -57 -89 -28 -118 -45
-128 -73 -6 -15 -10 -92 -10 -172 0 -80 -1 -147 -1 -150 -1 -4 -426 -4 -546
-1 -19 1 -20 7 -19 144 1 200 2 199 -99 237 -45 17 -122 49 -170 72 -71 33
-94 39 -114 32 -13 -5 -73 -58 -133 -119 l-110 -109 -200 200 -201 200 111
110 c75 76 112 120 116 141 4 22 -3 48 -31 104 -21 40 -46 101 -57 134 -34
105 -46 122 -86 132 -20 5 -99 8 -174 8 l-138 -1 0 283 0 283 156 0 c92 0 164
4 176 11 16 8 47 61 53 89 5 25 35 99 67 164 21 44 38 91 38 105 0 18 -31 56
-115 140 l-115 117 200 199 200 199 113 -112 c132 -130 138 -132 245 -79 37
19 103 47 147 62 124 43 120 36 120 228 l0 162 283 0 c182 0 282 -3 283 -10 0
-5 1 -79 2 -162 2 -181 0 -177 127 -221 47 -16 112 -43 145 -60 57 -29 82 -36
114 -33 7 0 63 51 124 111 60 61 113 110 116 110 3 0 95 -89 204 -198 l197
-197 -115 -115 c-133 -132 -133 -134 -81 -238 18 -37 46 -103 61 -147 41 -124
44 -125 236 -125 l159 0 0 -70 c0 -58 3 -72 22 -90 30 -27 73 -26 103 4 22 22
24 33 24 108 -1 105 -12 142 -52 170 -29 21 -46 23 -186 28 l-154 5 -39 99
-40 98 105 107 c115 117 134 153 106 212 -11 24 -270 291 -447 462 -45 44 -99
61 -143 45 -17 -6 -77 -57 -135 -113 l-105 -103 -37 19 c-20 11 -64 30 -97 42
l-60 23 -2 145 c-2 79 -8 156 -14 172 -6 15 -26 38 -43 50 -31 22 -36 22 -374
22 -302 1 -347 -1 -371 -16z"/>
<path d="M1505 3198 c-164 -35 -339 -130 -467 -254 -161 -156 -256 -337 -296
-564 -9 -48 -9 -244 0 -305 57 -386 350 -709 735 -812 83 -22 120 -26 243 -27
104 0 165 4 215 16 286 69 507 230 648 469 230 393 171 878 -146 1202 -125
127 -265 211 -439 261 -95 27 -134 26 -160 -5 -46 -55 -7 -107 101 -134 40 -9
95 -28 122 -41 27 -13 52 -24 55 -24 16 0 145 -94 194 -142 67 -64 105 -113
152 -193 37 -65 83 -186 94 -250 4 -22 8 -49 11 -60 7 -40 4 -197 -7 -254 -40
-222 -171 -425 -355 -549 -157 -108 -286 -147 -480 -147 -154 0 -225 16 -362
81 -162 77 -294 202 -378 357 -69 127 -96 229 -101 382 -8 247 86 471 271 643
107 99 235 169 373 201 82 20 113 72 72 123 -24 31 -44 37 -95 26z"/>
<path d="M1301 2492 c-193 -198 -221 -231 -221 -263 0 -35 11 -49 181 -226 96
-101 111 -113 142 -113 40 0 67 25 71 66 4 33 -7 47 -130 177 -46 48 -84 91
-84 95 1 4 45 54 99 110 54 57 104 114 111 127 24 45 -21 105 -77 105 -9 0
-51 -35 -92 -78z"/>
<path d="M1784 2559 c-12 -6 -26 -21 -32 -33 -24 -48 -182 -542 -182 -568 0
-59 84 -93 124 -49 18 20 196 552 196 587 0 48 -62 85 -106 63z"/>
<path d="M2026 2549 c-19 -15 -26 -30 -26 -55 0 -29 11 -46 73 -112 40 -42 89
-95 110 -117 l36 -40 -47 -49 c-26 -28 -63 -66 -82 -86 -68 -69 -90 -101 -90
-131 0 -39 32 -69 73 -69 35 0 59 22 249 227 68 73 76 86 73 114 -3 18 -17 46
-32 62 -279 300 -280 301 -337 256z"/>
</g>
</svg>
